# xmcd
#
# Track frame offsets:
#	183
#	10673
#	22538
#	45713
#	57968
#	67988
#	80810
#	96313
#	111300
#	125575
#	136388
#	149575
#	161100
#	170550
#	182613
#	193058
#	205793
#	216585
#	228563
#	238258
#	251133
#	263158
#	271818
#	284338
#
# Disc length: 3965
#
# Revision: 3
# Processed by: cddbd v1.5.1PL0 Copyright (c) Steve Scherf et al.
# Submitted via: EasyCDDAExtractor 6.5.2.1
# Normalized: r2:DSETVAR1
#
DISCID=6f0f7b18
DTITLE=Various Artist - An Hour Of Golden Country Hits
DYEAR=1989
DGENRE=Country
TTITLE0=Dave Dudley - Six Days On The Road
TTITLE1=Skeeter Davis - The End Of The World
TTITLE2=Red Savine - Teddy Bear
TTITLE3=Jack Scott - What In The Worlds Come Over You
TTITLE4=George Jones - Why Baby Why
TTITLE5=Bobby Helms - Fraulein
TTITLE6=Red Sovine - Phanton 309
TTITLE7=T Texas Tyler - Deck Of Cards
TTITLE8=Bobby Helms - My Special Angel
TTITLE9=Jim Lowe - Four Walls
TTITLE10=Kenny Rogers - Ruby, Don't Take Your Love To Town
TTITLE11=Freddy Fender - Before The Next Teardrop Falls
TTITLE12=Carl Dobkins Jr - My Heart Is An Open Book
TTITLE13=Jack Scott - Burning Bridges
TTITLE14=Ferlin Husky - Wings Of A Dove
TTITLE15=Del Reeves - Girl On The Billboard
TTITLE16=David Houston - So Many Ways
TTITLE17=Hawkshaw Hawkins - Lonesome7-7203
TTITLE18=George Jones - I've Got Five Dollars And It's Saturday Night
TTITLE19=Ray Peterson - Tell Laura I Love Her
TTITLE20=Ray Peterson - Corinna, Corinna
TTITLE21=Sandy Posey - Born A Women
TTITLE22=Kenny Rogers - Reuben James
TTITLE23=Freddy Fender - Wasted Days And Wasted Nights
EXTD=
EXTT0=
EXTT1=
EXTT2=
EXTT3=
EXTT4=
EXTT5=
EXTT6=
EXTT7=
EXTT8=
EXTT9=
EXTT10=
EXTT11=
EXTT12=
EXTT13=
EXTT14=
EXTT15=
EXTT16=
EXTT17=
EXTT18=
EXTT19=
EXTT20=
EXTT21=
EXTT22=
EXTT23=
PLAYORDER=
